<svg xmlns="http://www.w3.org/2000/svg" viewBox="0 0 64 64">
  <rect width="64" height="64" rx="13" fill="#0a0a0a"/>
  <rect x="8" y="12" width="48" height="6" rx="2" fill="#22c55e"/>
  <g>
    <rect x="10" y="24" width="10" height="10" rx="2" fill="#2a2a2a"/>
    <rect x="22" y="24" width="10" height="10" rx="2" fill="#22c55e"/>
    <rect x="34" y="24" width="10" height="10" rx="2" fill="#3b82f6"/>
    <rect x="46" y="24" width="10" height="10" rx="2" fill="#2a2a2a"/>
    <rect x="10" y="36" width="10" height="10" rx="2" fill="#3b82f6"/>
    <rect x="22" y="36" width="10" height="10" rx="2" fill="#2a2a2a"/>
    <rect x="34" y="36" width="10" height="10" rx="2" fill="#22c55e"/>
    <rect x="46" y="36" width="10" height="10" rx="2" fill="#f59e0b"/>
    <rect x="10" y="48" width="10" height="10" rx="2" fill="#22c55e"/>
    <rect x="22" y="48" width="10" height="10" rx="2" fill="#f59e0b"/>
    <rect x="34" y="48" width="10" height="10" rx="2" fill="#2a2a2a"/>
    <rect x="46" y="48" width="10" height="10" rx="2" fill="#22c55e"/>
  </g>
</svg>
